<?xml version="1.0" encoding="UTF-8" standalone="no"?>
<!-- Created with Inkscape (http://www.inkscape.org/) -->

<svg
   version="1.1"
   id="svg2"
   width="400"
   height="400"
   viewBox="0 0 400 400"
   sodipodi:docname="logo menor.svg"
   inkscape:export-filename="127893090.png"
   inkscape:export-xdpi="300"
   inkscape:export-ydpi="300"
   inkscape:version="1.2.2 (732a01da63, 2022-12-09)"
   xmlns:inkscape="http://www.inkscape.org/namespaces/inkscape"
   xmlns:sodipodi="http://sodipodi.sourceforge.net/DTD/sodipodi-0.dtd"
   xmlns="http://www.w3.org/2000/svg"
   xmlns:svg="http://www.w3.org/2000/svg">
  <defs
     id="defs6" />
  <sodipodi:namedview
     id="namedview4"
     pagecolor="#ffffff"
     bordercolor="#000000"
     borderopacity="0.25"
     inkscape:showpageshadow="2"
     inkscape:pageopacity="0.0"
     inkscape:pagecheckerboard="0"
     inkscape:deskcolor="#d1d1d1"
     showgrid="false"
     inkscape:zoom="0.7327394"
     inkscape:cx="49.813071"
     inkscape:cy="67.554713"
     inkscape:window-width="1278"
     inkscape:window-height="1000"
     inkscape:window-x="-7"
     inkscape:window-y="0"
     inkscape:window-maximized="0"
     inkscape:current-layer="g8" />
  <g
     inkscape:groupmode="layer"
     inkscape:label="Image"
     id="g8">
    <path
       style="fill:#7d4f95;fill-opacity:1;stroke-width:0.841786"
       d="m 196.92757,331.17931 c -0.97653,-1.38293 -2.20096,-5.70392 -3.04132,-10.73276 -0.77371,-4.62983 -2.31753,-13.34231 -3.43074,-19.36108 -1.11321,-6.01878 -3.20855,-17.38288 -4.65631,-25.25357 -1.44775,-7.87071 -3.52512,-18.85601 -4.61639,-24.41179 -1.09128,-5.55579 -2.21983,-11.80605 -2.5079,-13.88947 -0.96273,-6.96259 -4.07143,-21.04465 -4.64573,-21.04465 -0.55903,0 -1.93797,5.62212 -2.99375,12.2059 -0.29699,1.85193 -1.4144,6.96577 -2.48316,11.3641 -1.06875,4.39834 -2.19982,9.70158 -2.51349,11.78501 -0.31368,2.08342 -1.45009,7.38667 -2.52536,11.785 -1.07527,4.39833 -2.21169,9.70158 -2.52536,11.78499 -0.31368,2.08343 -1.45009,7.38669 -2.52535,11.78502 -1.07527,4.39832 -2.21172,9.60896 -2.52543,11.57919 -0.83547,5.24709 -5.41406,7.7915 -9.08025,5.04607 -1.42651,-1.06824 -5.51295,-15.49485 -7.33208,-25.88491 -0.52691,-3.00939 -1.52749,-7.46033 -2.22352,-9.89099 L 136.03591,263.626 H 117.67848 99.32107 l -1.0864,2.7358 c -3.02259,7.61165 -14.35469,11.98852 -22.369269,8.63982 -9.836885,-4.11011 -13.867138,-14.68784 -9.481003,-24.88368 2.988945,-6.948 11.100869,-11.02017 19.220052,-9.64845 4.64581,0.7849 10.79207,5.06655 12.23692,8.52459 l 1.18953,2.84692 h 21.12939 c 26.22711,0 25.23068,-0.3467 27.29655,9.49751 0.81674,3.89196 1.75845,7.51875 2.09267,8.05954 0.33421,0.54076 1.46226,-2.90424 2.50676,-7.65559 1.0445,-4.75132 2.98639,-13.56324 4.3153,-19.582 1.3289,-6.01877 2.64563,-12.26903 2.92603,-13.88946 0.28041,-1.62045 1.42527,-7.1131 2.54412,-12.2059 8.43279,-38.38419 7.81786,-36.27574 10.92433,-37.45682 4.00414,-1.52235 7.37486,4.35531 8.00398,7.06463 0.70588,3.03985 0.90579,6.06685 2.01288,11.11405 1.10708,5.04719 2.27319,11.26012 2.59134,13.80652 0.31815,2.5464 1.46449,8.79667 2.54741,13.88947 1.08292,5.09281 2.1952,10.77486 2.47171,12.6268 0.6565,4.39677 4.25729,24.14739 6.82933,37.45946 1.11818,5.78728 2.28471,12.5556 2.5923,15.04071 0.748,6.0431 1.68748,4.12794 2.87307,-5.85673 0.5173,-4.35671 1.82702,-12.65634 2.91049,-18.44362 1.08345,-5.78728 2.21064,-12.41634 2.50482,-14.73125 0.2942,-2.31491 1.44381,-9.32277 2.55471,-15.57304 1.11089,-6.25026 2.24764,-12.80206 2.52611,-14.55955 0.60472,-3.81652 3.05339,-5.28362 7.44396,-4.45994 3.26163,0.61189 5.01757,3.39722 7.7448,12.28521 2.16205,7.046 6.15319,18.10167 9.53972,26.42554 3.70094,9.09663 6.05588,11.3204 10.73185,10.13408 5.17829,-1.75784 7.25056,-3.10956 8.30712,-10.78956 l -0.10995,-38.06322 c -0.097,-33.60328 -0.26964,-38.29126 -1.47313,-40.00949 -0.97822,-1.39661 -1.36686,-3.85464 -1.3761,-8.7037 -0.006,-3.71658 -0.29499,-7.20089 -0.63978,-7.74292 -0.34479,-0.54201 -1.7595,-1.25423 -3.1438,-1.58269 -3.35354,-0.7957 -13.87156,-5.90642 -15.9855,-7.76737 -0.92597,-0.81514 -3.13882,-3.1242 -4.91747,-5.13122 -2.8567,-3.22352 -3.16924,-3.99379 -2.67958,-6.60388 0.42398,-2.25998 0.17811,-3.37743 -1.04561,-4.7524 -0.87994,-0.98871 -2.70457,-3.64903 -4.05471,-5.91179 -1.35013,-2.26277 -3.16826,-5.29321 -4.04028,-6.73429 -6.39792,-10.57298 -12.14018,-22.034913 -14.46041,-28.863953 -3.85949,-11.359358 -2.24907,-18.616115 5.91414,-26.649935 3.69444,-3.635868 5.93849,-5.056744 10.25505,-6.49321 5.5095,-1.83344 5.53224,-1.833973 7.75194,-0.183106 4.54466,3.380017 3.06001,7.775336 -3.66655,10.854863 -4.82202,2.207594 -10.16075,7.418553 -10.99147,10.728447 -1.07486,4.282576 7.50234,23.134684 17.28295,37.986724 1.82935,2.77791 3.71182,5.90851 4.18327,6.95689 1.70975,3.80204 4.56695,6.86694 6.87393,7.37364 1.29647,0.28476 2.56354,1.16775 2.8157,1.96221 0.69679,2.19539 7.10875,6.7682 10.94209,7.80355 1.87385,0.50612 6.50332,0.75887 10.28767,0.56168 7.53549,-0.39265 10.68089,-1.86989 16.61364,-7.80266 1.63122,-1.63121 3.69555,-2.96584 4.58742,-2.96584 0.89185,0 1.84347,-0.4735 2.11468,-1.05222 0.27123,-0.57873 1.43973,-2.56745 2.59668,-4.41938 1.15695,-1.85194 3.10218,-5.26117 4.32273,-7.57607 1.22054,-2.31491 2.69809,-4.77715 3.28344,-5.47161 1.14998,-1.36438 6.56278,-11.8339 10.05406,-19.446797 2.76653,-6.032513 3.93897,-12.171494 2.86682,-15.010908 -1.27201,-3.368658 -4.89992,-6.726253 -10.14691,-9.390834 -2.64471,-1.343059 -5.23385,-3.236568 -5.75363,-4.207788 -1.29881,-2.42685 -0.35393,-5.521129 2.1962,-7.192046 1.85258,-1.213851 2.58996,-1.25454 5.66869,-0.312847 5.04708,1.543764 11.75732,6.230223 15.14306,10.575967 6.66492,8.554723 6.26073,18.04154 -1.47135,34.533803 -2.58646,5.5168 -5.06913,10.59875 -5.51705,11.29323 -0.44792,0.69447 -1.97821,3.3461 -3.40063,5.89251 -5.13035,9.18423 -7.15245,12.49979 -8.59683,14.09581 -1.02681,1.13461 -1.31795,2.38215 -0.96626,4.14053 0.96805,4.84031 -8.11898,13.11549 -19.15346,17.44223 -3.08833,1.21099 -6.00085,2.20179 -6.47225,2.20179 -0.4714,0 -1.07021,1.79931 -1.33069,3.99848 -0.26049,2.19917 -0.90154,6.2713 -1.42454,9.0492 -0.56115,2.98033 -1.18404,21.44124 -1.51957,45.03555 -0.36115,25.39666 -1.33301,40.81012 -1.489,42.51018 -1.08371,11.81072 -9.73888,17.24198 -19.48101,17.25144 -10.13426,0.0107 -15.43644,-4.73251 -21.05082,-18.82814 -1.92345,-4.82903 -3.7319,-9.95372 -4.01879,-11.3882 -0.45718,-2.28585 -1.99476,-3.76833 -1.99476,-1.92327 0,1.92076 -2.55319,19.67404 -3.32423,23.11454 -0.4891,2.18247 -1.42253,7.66402 -2.07427,12.18125 -1.20413,8.34574 -4.41444,27.97122 -6.8858,42.09473 -1.55865,8.90757 -3.38146,11.99571 -7.08055,11.99571 -1.66829,0 -2.90858,-0.71041 -4.04155,-2.31492 z"
       id="path170"
       sodipodi:nodetypes="ssssssssssssssssscccssssscsssssssssssssssssssssssccsscsssssssssssssssssssssssssssssssssssssssssssssssssssss"
       inkscape:export-filename="path170.png"
       inkscape:export-xdpi="300"
       inkscape:export-ydpi="300" />
  </g>
</svg>
