<?xml version="1.0" encoding="UTF-8" standalone="no"?>
<!-- Created with Inkscape (http://www.inkscape.org/) -->

<svg
   version="1.1"
   id="svg2"
   width="5333.3335"
   height="7314.1201"
   viewBox="0 0 5333.3335 7314.1201"
   sodipodi:docname="vecteezy_plus-location-map-marker-pin-flat-color-icon-vector-icon_19114111.eps"
   xmlns:inkscape="http://www.inkscape.org/namespaces/inkscape"
   xmlns:sodipodi="http://sodipodi.sourceforge.net/DTD/sodipodi-0.dtd"
   xmlns="http://www.w3.org/2000/svg"
   xmlns:svg="http://www.w3.org/2000/svg">
  <defs
     id="defs6" />
  <sodipodi:namedview
     id="namedview4"
     pagecolor="#ffffff"
     bordercolor="#000000"
     borderopacity="0.25"
     inkscape:showpageshadow="2"
     inkscape:pageopacity="0.0"
     inkscape:pagecheckerboard="0"
     inkscape:deskcolor="#d1d1d1" />
  <g
     id="g8"
     inkscape:groupmode="layer"
     inkscape:label="ink_ext_XXXXXX"
     transform="matrix(1.3333333,0,0,-1.3333333,0,7314.12)">
    <g
       id="g10"
       transform="scale(0.1)">
      <path
         d="m 29713.7,34856.3 c 0,5364.4 -4349.7,9714 -9714.1,9714 -5364.3,0 -9714,-4349.6 -9714,-9714 0,-5364.4 4349.7,-9714 9714,-9714 5364.4,0 9714.1,4349.6 9714.1,9714 z m 9142.9,571.5 C 38991,25256.1 20133.5,1142.5 20133.5,1142.5 c 0,0 -19034.8,23961.9 -18990.34,34285.3 38.93,8835.9 8442.1,18284.9 18856.44,18284.9 10414.4,0 18740.5,-9450.2 18857,-18284.9"
         style="fill:#ec3d3d;fill-opacity:1;fill-rule:nonzero;stroke:none"
         id="path12" />
      <path
         d="m 19999.6,52570.2 c -4585.2,0 -9025.8,-1949 -12503.94,-5487.7 -3293.16,-3349.8 -5192.22,-7600 -5209.96,-11659.7 -17.26,-3996.9 3196.55,-11045.4 9293,-20383.9 3456.5,-5295.6 6947.9,-9944 8547.5,-12025.1 1586.5,2095.7 5049,6776.9 8467,12089.5 6018.8,9354.7 9172.6,16377.7 9120.3,20309 -106.5,8099.3 -7704.9,17157.9 -17713.9,17157.9 z M 20133.5,0 c -348.8,0 -678.2,158.797 -894.9,432.102 C 19190.9,492.102 14392,6547.4 9664.66,13789.2 3232.17,23642 -19.375,30923.9 0.0859375,35432.3 20.6211,40083 2158.5,44913.5 5865.45,48685 c 3911.36,3979.1 8930.75,6170.9 14134.15,6170.9 5195.5,0 10205.6,-2192.3 14106.4,-6172.6 3683.7,-3758.6 5831.5,-8584.7 5893.2,-13240.5 C 40058,30996 36864.4,23732 30506.2,13852.5 25834.5,6592.4 21081.1,499.297 21033.9,438.695 20817.8,162.797 20487.8,1.09766 20137.9,0 c -1.7,0 -3.3,0 -4.4,0"
         style="fill:#000000;fill-opacity:1;fill-rule:nonzero;stroke:none"
         id="path14" />
      <path
         d="m 19999.6,43427.2 c -4726.2,0 -8570.9,-3844.7 -8570.9,-8570.9 0,-4726.2 3844.7,-8571.5 8570.9,-8571.5 4726.2,0 8571.5,3845.3 8571.5,8571.5 0,4726.2 -3845.3,8570.9 -8571.5,8570.9 z m 0,-19428 c -5986.4,0 -10857.07,4870.7 -10857.07,10857.1 0,5986.4 4870.67,10856.5 10857.07,10856.5 5986.5,0 10857,-4870.1 10857,-10856.5 0,-5986.4 -4870.5,-10857.1 -10857,-10857.1"
         style="fill:#000000;fill-opacity:1;fill-rule:nonzero;stroke:none"
         id="path16" />
      <path
         d="m 20114.1,29713.5 c -631,0 -1143.2,511.7 -1143.2,1142.5 v 9143 c 0,631.1 512.2,1142.5 1143.2,1142.5 630.8,0 1142.5,-511.4 1142.5,-1142.5 v -9143 c 0,-630.8 -511.7,-1142.5 -1142.5,-1142.5"
         style="fill:#000000;fill-opacity:1;fill-rule:nonzero;stroke:none"
         id="path18" />
      <path
         d="m 24685.3,34284.6 h -9142.5 c -631.6,0 -1143.1,511.7 -1143.1,1143.2 0,631 511.5,1142.6 1143.1,1142.6 h 9142.5 c 631,0 1143,-511.6 1143,-1142.6 0,-631.5 -512,-1143.2 -1143,-1143.2"
         style="fill:#000000;fill-opacity:1;fill-rule:nonzero;stroke:none"
         id="path20" />
    </g>
  </g>
</svg>
